# xmcd
#
# Track frame offsets: 
#        150
#        12965
#        25389
#        38365
#        54182
#        69328
#        82668
#        98025
#        111706
#        124565
#        137696
#        150948
#        163607
#        176474
#        191628
#        204144
#        215581
#        228532
#
# Disc length: 3206 seconds
#
# Revision: 1
# Processed by: cddbd v1.5.2PL0 Copyright (c) Steve Scherf et al.
# Submitted via: ExactAudioCopy v0.95b2
#
DISCID=db0c8412
DTITLE=Bumble Bee Slim (Amos Easton) - The Essential Bumble Bee Slim D
DTITLE=isc 2
DYEAR=2002
DGENRE=Blues
TTITLE0=Sloppy Drunk Blues 
TTITLE1=Bleeding Heart Blues 
TTITLE2=Bad Girl 
TTITLE3=No Woman No Nickel 
TTITLE4=Baby So Long 
TTITLE5=Deep Bass Boogie 
TTITLE6=Squalling Panther Blues 
TTITLE7=Dead and Gone Mother 
TTITLE8=Hey Lawdy Mama 
TTITLE9=Mean Mistreatin' Woman 
TTITLE10=You Can't Take It Baby 
TTITLE11=When Somebody Loses 
TTITLE12=No Good Woman 
TTITLE13=I'se Gonna Break 'Em Down 
TTITLE14=This Old Life I'm Living 
TTITLE15=New Big 80 Blues 
TTITLE16=Wet Clothes Blues 
TTITLE17=No More Buscuit Rolling Here 
EXTD=hale
EXTT0=
EXTT1=
EXTT2=
EXTT3=
EXTT4=
EXTT5=
EXTT6=
EXTT7=
EXTT8=
EXTT9=
EXTT10=
EXTT11=
EXTT12=
EXTT13=
EXTT14=
EXTT15=
EXTT16=
EXTT17=
PLAYORDER=
